<svg width="30" height="30" viewBox="0 0 30 30" fill="none" xmlns="http://www.w3.org/2000/svg">
<g id="Frame 15">
<path id="Vector" d="M17 23C17.7956 23 18.5587 22.6839 19.1213 22.1213C19.6839 21.5587 20 20.7956 20 20V11C20 10.2044 19.6839 9.44129 19.1213 8.87868C18.5587 8.31607 17.7956 8 17 8H14C13.2044 8 12.4413 8.31607 11.8787 8.87868C11.3161 9.44129 11 10.2044 11 11V14C11 14.7956 11.3161 15.5587 11.8787 16.1213C12.4413 16.6839 13.2044 17 14 17H17V20H11V23H17ZM17 14H14V11H17V14Z" fill="white"/>
</g>
</svg>
