<svg width="30" height="30" viewBox="0 0 30 30" fill="none" xmlns="http://www.w3.org/2000/svg">
<g id="Frame 15">
<path id="Vector" d="M13.6667 8C12.9594 8 12.2811 8.295 11.781 8.8201C11.281 9.3452 11 10.0574 11 10.8V19.2C11 19.9426 11.281 20.6548 11.781 21.1799C12.2811 21.705 12.9594 22 13.6667 22H16.3333C17.0406 22 17.7189 21.705 18.219 21.1799C18.719 20.6548 19 19.9426 19 19.2V16.4C19 15.6574 18.719 14.9452 18.219 14.4201C17.7189 13.895 17.0406 13.6 16.3333 13.6H13.6667V10.8H19V8H13.6667ZM13.6667 16.4H16.3333V19.2H13.6667V16.4Z" fill="white"/>
</g>
</svg>
