<svg width="30" height="30" viewBox="0 0 30 30" fill="none" xmlns="http://www.w3.org/2000/svg">
<g id="Frame 15">
<path id="Vector" d="M6 8V11H9V23H12V8H6Z" fill="white"/>
<path id="Vector_2" d="M18 8C17.2044 8 16.4413 8.31607 15.8787 8.87868C15.3161 9.44129 15 10.2044 15 11V20C15 20.7956 15.3161 21.5587 15.8787 22.1213C16.4413 22.6839 17.2044 23 18 23H21C21.7956 23 22.5587 22.6839 23.1213 22.1213C23.6839 21.5587 24 20.7956 24 20V11C24 10.2044 23.6839 9.44129 23.1213 8.87868C22.5587 8.31607 21.7956 8 21 8H18ZM18 11H21V20H18V11Z" fill="white"/>
</g>
</svg>
