<svg width="30" height="30" viewBox="0 0 30 30" fill="none" xmlns="http://www.w3.org/2000/svg">
<g id="Frame 15">
<path id="Vector" d="M20 20V17.75C20 17.1533 19.7629 16.581 19.341 16.159C18.919 15.7371 18.3467 15.5 17.75 15.5C18.3467 15.5 18.919 15.2629 19.341 14.841C19.7629 14.419 20 13.8467 20 13.25V11C20 10.2044 19.6839 9.44129 19.1213 8.87868C18.5587 8.31607 17.7956 8 17 8H11V11H17V14H14V17H17V20H11V23H17C17.7956 23 18.5587 22.6839 19.1213 22.1213C19.6839 21.5587 20 20.7956 20 20Z" fill="white"/>
</g>
</svg>
