<svg width="30" height="30" viewBox="0 0 30 30" fill="none" xmlns="http://www.w3.org/2000/svg">
<path d="M25.9167 4H22.7917V3C22.7917 2.73478 22.6819 2.48043 22.4866 2.29289C22.2912 2.10536 22.0263 2 21.75 2C21.4737 2 21.2088 2.10536 21.0134 2.29289C20.8181 2.48043 20.7083 2.73478 20.7083 3V4H10.2917V3C10.2917 2.73478 10.1819 2.48043 9.98657 2.29289C9.79122 2.10536 9.52627 2 9.25 2C8.97373 2 8.70878 2.10536 8.51343 2.29289C8.31808 2.48043 8.20833 2.73478 8.20833 3V4H5.08333C4.5308 4 4.00089 4.21071 3.61019 4.58579C3.21949 4.96086 3 5.46957 3 6V26C3 26.5304 3.21949 27.0391 3.61019 27.4142C4.00089 27.7893 4.5308 28 5.08333 28H25.9167C26.4692 28 26.9991 27.7893 27.3898 27.4142C27.7805 27.0391 28 26.5304 28 26V6C28 5.46957 27.7805 4.96086 27.3898 4.58579C26.9991 4.21071 26.4692 4 25.9167 4ZM13.4167 23C13.4167 23.2652 13.3069 23.5196 13.1116 23.7071C12.9162 23.8946 12.6513 24 12.375 24C12.0987 24 11.8338 23.8946 11.6384 23.7071C11.4431 23.5196 11.3333 23.2652 11.3333 23V16.6175L10.7578 16.895C10.5106 17.0137 10.2243 17.0332 9.96205 16.9493C9.69979 16.8654 9.483 16.6849 9.35937 16.4475C9.23574 16.2101 9.2154 15.9353 9.30282 15.6836C9.39024 15.4318 9.57826 15.2237 9.82552 15.105L11.9089 14.105C12.0677 14.0287 12.2443 13.9926 12.4218 14.0003C12.5992 14.0079 12.7717 14.059 12.9228 14.1487C13.0739 14.2384 13.1986 14.3637 13.285 14.5127C13.3715 14.6617 13.4168 14.8295 13.4167 15V23ZM20.7083 22C20.9846 22 21.2496 22.1054 21.4449 22.2929C21.6403 22.4804 21.75 22.7348 21.75 23C21.75 23.2652 21.6403 23.5196 21.4449 23.7071C21.2496 23.8946 20.9846 24 20.7083 24H16.5417C16.3482 24 16.1586 23.9483 15.994 23.8507C15.8295 23.753 15.6965 23.6133 15.61 23.4472C15.5235 23.2811 15.4868 23.0952 15.5042 22.9102C15.5216 22.7252 15.5923 22.5486 15.7083 22.4L19.4557 17.6038C19.541 17.4948 19.6021 17.3703 19.6354 17.2379C19.6687 17.1054 19.6735 16.9678 19.6494 16.8336C19.6254 16.6993 19.573 16.5712 19.4955 16.457C19.418 16.3429 19.317 16.2452 19.1987 16.1699C19.0805 16.0945 18.9474 16.0432 18.8077 16.019C18.6681 15.9949 18.5247 15.9983 18.3865 16.0292C18.2483 16.0602 18.1181 16.1179 18.0039 16.1988C17.8898 16.2798 17.7941 16.3823 17.7227 16.5C17.6563 16.6174 17.5661 16.7208 17.4574 16.8041C17.3487 16.8875 17.2238 16.9491 17.0899 16.9853C16.956 17.0215 16.8159 17.0316 16.6779 17.0151C16.5398 16.9985 16.4067 16.9555 16.2862 16.8887C16.1658 16.8219 16.0605 16.7327 15.9766 16.6262C15.8926 16.5197 15.8318 16.3981 15.7976 16.2687C15.7634 16.1392 15.7565 16.0045 15.7774 15.8725C15.7983 15.7405 15.8465 15.6138 15.9193 15.5C16.2634 14.9284 16.7943 14.4817 17.4297 14.2291C18.0651 13.9766 18.7696 13.9323 19.4339 14.1032C20.0982 14.2741 20.6852 14.6506 21.1039 15.1743C21.5227 15.6981 21.7498 16.3398 21.75 17C21.7522 17.6522 21.5307 18.2869 21.1198 18.8062L18.625 22H20.7083ZM5.08333 10V6H8.20833V7C8.20833 7.26522 8.31808 7.51957 8.51343 7.70711C8.70878 7.89464 8.97373 8 9.25 8C9.52627 8 9.79122 7.89464 9.98657 7.70711C10.1819 7.51957 10.2917 7.26522 10.2917 7V6H20.7083V7C20.7083 7.26522 20.8181 7.51957 21.0134 7.70711C21.2088 7.89464 21.4737 8 21.75 8C22.0263 8 22.2912 7.89464 22.4866 7.70711C22.6819 7.51957 22.7917 7.26522 22.7917 7V6H25.9167V10H5.08333Z" fill="#4E342E"/>
</svg>
