<svg width="30" height="30" viewBox="0 0 30 30" fill="none" xmlns="http://www.w3.org/2000/svg">
<path d="M24.9167 4H21.7917V3C21.7917 2.73478 21.6819 2.48043 21.4866 2.29289C21.2912 2.10536 21.0263 2 20.75 2C20.4737 2 20.2088 2.10536 20.0134 2.29289C19.8181 2.48043 19.7083 2.73478 19.7083 3V4H9.29167V3C9.29167 2.73478 9.18192 2.48043 8.98657 2.29289C8.79122 2.10536 8.52627 2 8.25 2C7.97373 2 7.70878 2.10536 7.51343 2.29289C7.31808 2.48043 7.20833 2.73478 7.20833 3V4H4.08333C3.5308 4 3.00089 4.21071 2.61019 4.58579C2.21949 4.96086 2 5.46957 2 6V26C2 26.5304 2.21949 27.0391 2.61019 27.4142C3.00089 27.7893 3.5308 28 4.08333 28H24.9167C25.4692 28 25.9991 27.7893 26.3898 27.4142C26.7805 27.0391 27 26.5304 27 26V6C27 5.46957 26.7805 4.96086 26.3898 4.58579C25.9991 4.21071 25.4692 4 24.9167 4ZM12.4167 23C12.4167 23.2652 12.3069 23.5196 12.1116 23.7071C11.9162 23.8946 11.6513 24 11.375 24C11.0987 24 10.8338 23.8946 10.6384 23.7071C10.4431 23.5196 10.3333 23.2652 10.3333 23V16.6175L9.75781 16.895C9.51055 17.0137 9.22431 17.0332 8.96205 16.9493C8.69979 16.8654 8.483 16.6849 8.35937 16.4475C8.23574 16.2101 8.2154 15.9353 8.30282 15.6836C8.39024 15.4318 8.57826 15.2237 8.82552 15.105L10.9089 14.105C11.0677 14.0287 11.2443 13.9926 11.4218 14.0003C11.5992 14.0079 11.7717 14.059 11.9228 14.1487C12.0739 14.2384 12.1986 14.3637 12.285 14.5127C12.3715 14.6617 12.4168 14.8295 12.4167 15V23ZM19.7083 22C19.9846 22 20.2496 22.1054 20.4449 22.2929C20.6403 22.4804 20.75 22.7348 20.75 23C20.75 23.2652 20.6403 23.5196 20.4449 23.7071C20.2496 23.8946 19.9846 24 19.7083 24H15.5417C15.3482 24 15.1586 23.9483 14.994 23.8507C14.8295 23.753 14.6965 23.6133 14.61 23.4472C14.5235 23.2811 14.4868 23.0952 14.5042 22.9102C14.5216 22.7252 14.5923 22.5486 14.7083 22.4L18.4557 17.6038C18.541 17.4948 18.6021 17.3703 18.6354 17.2379C18.6687 17.1054 18.6735 16.9678 18.6494 16.8336C18.6254 16.6993 18.573 16.5712 18.4955 16.457C18.418 16.3429 18.317 16.2452 18.1987 16.1699C18.0805 16.0945 17.9474 16.0432 17.8077 16.019C17.6681 15.9949 17.5247 15.9983 17.3865 16.0292C17.2483 16.0602 17.1181 16.1179 17.0039 16.1988C16.8898 16.2798 16.7941 16.3823 16.7227 16.5C16.6563 16.6174 16.5661 16.7208 16.4574 16.8041C16.3487 16.8875 16.2238 16.9491 16.0899 16.9853C15.956 17.0215 15.8159 17.0316 15.6779 17.0151C15.5398 16.9985 15.4067 16.9555 15.2862 16.8887C15.1658 16.8219 15.0605 16.7327 14.9766 16.6262C14.8926 16.5197 14.8318 16.3981 14.7976 16.2687C14.7634 16.1392 14.7565 16.0045 14.7774 15.8725C14.7983 15.7405 14.8465 15.6138 14.9193 15.5C15.2634 14.9284 15.7943 14.4817 16.4297 14.2291C17.0651 13.9766 17.7696 13.9323 18.4339 14.1032C19.0982 14.2741 19.6852 14.6506 20.1039 15.1743C20.5227 15.6981 20.7498 16.3398 20.75 17C20.7522 17.6522 20.5307 18.2869 20.1198 18.8062L17.625 22H19.7083ZM4.08333 10V6H7.20833V7C7.20833 7.26522 7.31808 7.51957 7.51343 7.70711C7.70878 7.89464 7.97373 8 8.25 8C8.52627 8 8.79122 7.89464 8.98657 7.70711C9.18192 7.51957 9.29167 7.26522 9.29167 7V6H19.7083V7C19.7083 7.26522 19.8181 7.51957 20.0134 7.70711C20.2088 7.89464 20.4737 8 20.75 8C21.0263 8 21.2912 7.89464 21.4866 7.70711C21.6819 7.51957 21.7917 7.26522 21.7917 7V6H24.9167V10H4.08333Z" fill="white"/>
</svg>
