<svg width="30" height="30" viewBox="0 0 30 30" fill="none" xmlns="http://www.w3.org/2000/svg">
<path d="M10.3288 7.76152C10.4323 7.90265 10.5828 7.9685 10.7428 7.9685C10.8463 7.9685 10.9498 7.94028 11.0438 7.86501L11.0467 7.86313L11.0542 7.85843C11.1285 7.80951 11.581 7.51315 12.2293 7.59218C12.5115 7.62981 12.7655 7.42283 12.8032 7.15C12.8314 6.86776 12.6338 6.61374 12.3516 6.57611C11.232 6.44439 10.4511 7.0277 10.4229 7.05592C10.3699 7.09568 10.3253 7.14561 10.2918 7.2028C10.2583 7.25998 10.2365 7.32328 10.2278 7.38897C10.219 7.45467 10.2234 7.52146 10.2408 7.58543C10.2581 7.64939 10.2881 7.70926 10.3288 7.76152ZM17.1591 7.9685C17.0556 7.9685 16.9427 7.93087 16.8486 7.86501L16.8449 7.86219C16.4954 7.63506 16.0766 7.53937 15.6632 7.59218C15.5319 7.59933 15.4028 7.55623 15.3022 7.47164C15.2015 7.38706 15.1369 7.26733 15.1213 7.13678C15.1057 7.00623 15.1404 6.87464 15.2184 6.76876C15.2963 6.66288 15.4116 6.59063 15.5409 6.5667C16.6699 6.43499 17.4413 7.01829 17.4696 7.04651C17.6954 7.21586 17.733 7.54514 17.5636 7.77093C17.4602 7.90265 17.3096 7.9685 17.1591 7.9685ZM13.1042 10.9132L13.5934 9.34208C13.7063 9.00339 14.1861 9.00339 14.299 9.34208L14.7788 10.9132C14.8729 11.2331 14.6377 11.5624 14.299 11.5624H13.584C13.2453 11.5624 13.0007 11.2331 13.1042 10.9132ZM13.9415 12.4844C13.4335 12.4844 12.9631 12.3621 12.5585 12.1551C12.4268 12.0798 12.2763 12.2398 12.361 12.3715C12.6997 12.8889 13.2736 13.2276 13.9415 13.2276C14.6095 13.2276 15.1834 12.8889 15.5221 12.3715C15.6068 12.2398 15.4562 12.0892 15.3245 12.1551C14.92 12.3621 14.4496 12.4844 13.9415 12.4844ZM11.7024 8.32601C11.0909 8.32601 10.5734 8.74937 10.4323 9.31386C10.3947 9.4832 10.5264 9.63373 10.6863 9.63373H11.089C11.0562 9.50954 11.0523 9.37947 11.0776 9.25354C11.103 9.12761 11.1569 9.00919 11.2353 8.90739C11.3136 8.80559 11.4143 8.72313 11.5295 8.66638C11.6448 8.60962 11.7715 8.58008 11.9 8.58003C12.361 8.58003 12.7373 8.95635 12.7279 9.41735C12.7275 9.49025 12.7187 9.56287 12.7015 9.63373H12.7749C12.9066 9.63373 13.0101 9.51143 12.9913 9.37971C12.869 8.787 12.3422 8.32601 11.7024 8.32601ZM16.1901 8.32601C16.8016 8.32601 17.319 8.74937 17.4602 9.31386C17.4978 9.47379 17.3755 9.63373 17.2061 9.63373H16.8035C16.8363 9.50954 16.8402 9.37947 16.8148 9.25354C16.7895 9.12761 16.7355 9.00919 16.6572 8.90739C16.5788 8.80559 16.4782 8.72313 16.3629 8.66638C16.2477 8.60962 16.1209 8.58008 15.9925 8.58003C15.5315 8.58003 15.1552 8.95635 15.1646 9.41735C15.1646 9.49826 15.174 9.56223 15.19 9.63373H15.1175C14.9858 9.63373 14.8823 9.51143 14.9012 9.37971C15.0235 8.787 15.5503 8.32601 16.1901 8.32601Z" fill="white"/>
<path d="M24.7486 20.2368C24.6652 20.4932 24.5182 20.7242 24.3215 20.9086C24.8662 21.077 25.2595 21.5831 25.2595 22.1843V26.973C25.2595 27.226 25.185 27.4734 25.0453 27.6844C24.9056 27.8954 24.7069 28.0606 24.4739 28.1594C24.3875 28.2374 24.2752 28.2807 24.1588 28.2807H3.4704C3.34564 28.2807 3.226 28.2312 3.13778 28.143C3.04956 28.0547 3 27.9351 3 27.8103V24.5175C3 20.0863 5.66249 16.2817 9.46993 14.608C9.17714 14.1205 8.99862 13.5731 8.94779 13.0067V12.9945L8.8443 11.5155C8.51509 11.4105 8.21864 11.2222 7.98373 10.9687C7.74881 10.7153 7.58342 10.4055 7.5036 10.0693C7.42379 9.73307 7.43227 9.38194 7.52821 9.04998C7.62416 8.71802 7.80432 8.41651 8.0512 8.17473L7.60902 5.73804V5.73428C7.52047 5.24385 7.59258 4.73795 7.81464 4.29181C8.0367 3.84566 8.39683 3.48311 8.84147 3.25807L9.23473 3.0605C9.46951 2.94344 9.68393 2.78938 9.86978 2.60421L9.87072 2.60233L10.8134 1.6634C11.1376 1.33264 11.5574 1.11202 12.0137 1.03269C12.47 0.953348 12.9396 1.0193 13.3564 1.22122C13.7534 1.35576 14.174 1.35199 14.5578 1.2137L14.5644 1.21087C15.0247 1.05122 15.5208 1.0248 15.9955 1.13465C16.4702 1.2445 16.9042 1.48616 17.2476 1.83181L18.0096 2.60045C18.2044 2.78767 18.418 2.94478 18.6484 3.06144L19.0436 3.25901C19.4868 3.48369 19.8447 3.84665 20.0632 4.29294C20.2817 4.73923 20.3488 5.24455 20.2544 5.73239L19.816 8.15027C20.0698 8.39036 20.2564 8.69265 20.3574 9.02713C20.4583 9.36162 20.4701 9.71669 20.3914 10.0571C20.3128 10.3975 20.1465 10.7115 19.9091 10.9678C19.6717 11.2241 19.3714 11.4139 19.0379 11.5184L18.9363 12.9945L18.9354 13.0067C18.8812 13.6074 18.6834 14.1863 18.3587 14.6945C18.5613 14.7886 18.7601 14.8886 18.9552 14.9946C19.2074 14.805 19.5036 14.6826 19.8161 14.6388C20.1286 14.595 20.4471 14.6314 20.7417 14.7444C20.9092 14.6754 21.088 14.6403 21.278 14.639H24.0045C24.1995 14.6403 24.3805 14.6763 24.5473 14.7472C24.7607 14.6622 24.9884 14.6191 25.2181 14.6202C26.141 14.6202 27 15.3362 27 16.356V18.5838C26.9774 19.5689 26.1608 20.2989 25.2181 20.2989C25.0569 20.2989 24.9001 20.2785 24.7477 20.2378M19.2129 8.87845L19.1038 10.4364C19.2182 10.3447 19.3125 10.2302 19.3805 10.1002C19.4486 9.97029 19.489 9.82766 19.4993 9.68132C19.5095 9.53498 19.4894 9.38811 19.4401 9.24994C19.3908 9.11176 19.3135 8.98528 19.2129 8.87845ZM15.2173 16.0606H12.4109C12.5614 16.3064 12.7392 16.5291 12.9443 16.7286L13.5559 17.3175C13.6246 17.3859 13.7176 17.4242 13.8146 17.4242C13.9115 17.4242 14.0046 17.3859 14.0733 17.3175L14.6848 16.7295C14.8906 16.5282 15.0681 16.3052 15.2173 16.0606ZM8.77938 10.428L8.67119 8.88786C8.57349 8.99432 8.49852 9.11957 8.45085 9.25597C8.40319 9.39237 8.38382 9.53706 8.39395 9.68119C8.40407 9.82532 8.44347 9.96588 8.50974 10.0943C8.57601 10.2227 8.66776 10.3362 8.77938 10.428ZM19.3785 15.8875C19.2989 16.0144 19.2565 16.161 19.2562 16.3108V18.5349C19.2556 18.643 19.277 18.7501 19.3192 18.8496C19.3613 18.9491 19.4234 19.039 19.5015 19.1136C19.5797 19.1883 19.6722 19.2463 19.7735 19.284C19.8748 19.3216 19.9828 19.3382 20.0907 19.3327V15.561H20.0719C20.0292 15.561 19.9882 15.5635 19.9486 15.5685L19.9223 15.5732L19.9082 15.5751C19.6996 15.6104 19.5112 15.7209 19.3785 15.8856M21.3928 19.6742C21.3862 19.7083 21.3827 19.743 21.3824 19.7777C21.3824 20.0505 21.5922 20.265 21.8585 20.265H21.9243V21.9143H23.3337V20.3215H23.3412V20.3055H23.4071C23.4924 20.3049 23.5695 20.2857 23.6385 20.2481L23.6413 20.2462C23.7306 20.1835 23.7997 20.0963 23.8405 19.9951C23.8812 19.894 23.8918 19.7832 23.8709 19.6761L21.3928 19.6742ZM24.8249 19.265C24.9853 19.3455 25.1666 19.3747 25.3442 19.3487C25.5376 19.3241 25.7159 19.2313 25.847 19.0869C25.9781 18.9426 26.0533 18.7562 26.0592 18.5612V16.3551C26.0592 15.9467 25.7384 15.6175 25.3282 15.5667C25.1558 15.5459 24.981 15.5753 24.8249 15.6513V19.265ZM23.3337 22.8551H21.8933C21.8224 22.8551 21.7541 22.8479 21.6882 22.8335H20.8659V22.8429C20.4802 22.8429 20.1509 23.1439 20.1415 23.5315C20.1321 23.7865 20.2638 24.0132 20.4614 24.1459C20.2732 24.2682 20.1415 24.4855 20.1415 24.7311C20.1415 24.9757 20.2638 25.1939 20.4614 25.3162C20.2732 25.4385 20.1415 25.6568 20.1415 25.9014C20.1415 26.147 20.2638 26.3643 20.4614 26.4875C20.3617 26.5556 20.2804 26.6472 20.2246 26.7542C20.1688 26.8612 20.1403 26.9803 20.1415 27.101C20.1434 27.1863 20.1597 27.2656 20.1904 27.339H23.9668C23.9941 27.3269 24.0225 27.3175 24.0515 27.3108C24.1276 27.2926 24.1954 27.2492 24.2439 27.1878C24.2924 27.1263 24.3187 27.0503 24.3187 26.9721V22.1834C24.3199 22.1173 24.3037 22.0521 24.2717 21.9943C24.2516 22.2292 24.1441 22.448 23.9704 22.6074C23.7967 22.7668 23.5694 22.8552 23.3337 22.8551ZM18.0529 27.3399V22.8429C18.0535 22.7809 18.0418 22.7194 18.0184 22.662C17.995 22.6046 17.9604 22.5524 17.9166 22.5085C17.8728 22.4646 17.8207 22.4299 17.7633 22.4064C17.706 22.3829 17.6445 22.371 17.5825 22.3715C17.3191 22.3715 17.1121 22.5785 17.1121 22.8438V27.3399H18.0529ZM14.2897 27.3399V22.8429C14.2903 22.7809 14.2786 22.7194 14.2552 22.662C14.2318 22.6046 14.1972 22.5524 14.1534 22.5085C14.1096 22.4646 14.0575 22.4299 14.0001 22.4064C13.9428 22.3829 13.8813 22.371 13.8193 22.3715C13.5559 22.3715 13.3489 22.5785 13.3489 22.8438V27.3399H14.2897ZM10.5265 27.3399V22.8429C10.5271 22.7809 10.5154 22.7194 10.4919 22.662C10.4685 22.6046 10.4339 22.5524 10.3901 22.5085C10.3463 22.4646 10.2942 22.4299 10.2369 22.4064C10.1795 22.3829 10.1181 22.371 10.0561 22.3715C9.79263 22.3715 9.58565 22.5785 9.58565 22.8438V27.3399H10.5265ZM10.3759 5.16321C10.3707 5.16897 10.3674 5.1762 10.3665 5.1839V6.00241C10.3665 6.43988 10.1821 6.88206 9.83967 7.18312L9.83214 7.1897L9.66092 7.33459C9.61577 7.3762 9.58044 7.42734 9.5575 7.48429C9.53456 7.54124 9.52457 7.60258 9.52826 7.66387L9.88577 12.7461C10.025 14.1451 11.1154 15.1188 12.4363 15.1188H15.4469C16.7678 15.1188 17.8582 14.1451 17.9984 12.7461L18.3559 7.65352C18.3585 7.59572 18.3482 7.53805 18.3255 7.4848C18.3029 7.43154 18.2686 7.38407 18.2251 7.34588L18.0294 7.17842L18.0247 7.17371C17.8581 7.02555 17.725 6.84363 17.6342 6.64006C17.5433 6.43649 17.4969 6.21592 17.4978 5.993V5.1839C17.4966 5.16822 17.4944 5.15976 17.4913 5.1585L17.4875 5.15474L17.4781 5.15098C16.9061 5.00797 15.6651 4.76054 13.9312 4.76054C12.203 4.76054 10.9639 5.00703 10.391 5.15003C10.3849 5.15299 10.3797 5.15754 10.3759 5.16321ZM21.0315 18.7344H23.884V15.9025H21.0315V18.7344Z" fill="white"/>
</svg>
