<svg width="30" height="30" viewBox="0 0 30 30" fill="none" xmlns="http://www.w3.org/2000/svg">
<path d="M4 25V20.0417L19.4 4.67083C19.6333 4.45694 19.8912 4.29167 20.1735 4.175C20.4558 4.05833 20.7522 4 21.0625 4C21.3728 4 21.6742 4.05833 21.9667 4.175C22.2591 4.29167 22.5119 4.46667 22.725 4.7L24.3292 6.33333C24.5625 6.54722 24.7328 6.8 24.8402 7.09167C24.9475 7.38333 25.0008 7.675 25 7.96667C25 8.27778 24.9467 8.5745 24.8402 8.85683C24.7336 9.13917 24.5633 9.39661 24.3292 9.62917L8.95833 25H4ZM21.0333 9.6L22.6667 7.96667L21.0333 6.33333L19.4 7.96667L21.0333 9.6Z" fill="white"/>
</svg>
